<?xml version="1.0"?><svg width="312" height="320" xmlns="http://www.w3.org/2000/svg">
 <title>warning sign</title>

 <metadata id="metadata7">image/svg+xml</metadata>
 <g>
  <title>Layer 1</title>
  <path id="path3162" d="m147.160004,41.354599c-23.306007,40.604401 -90.201603,156.564407 -134.234504,233.986404c-3.37817,5.951996 3.4462,17.993988 8.9512,17.993011c53.583803,-0.011017 219.256296,-0.077026 275.627298,-0.120026c6.243011,-0.004974 11.67099,-13.148987 8.382996,-18.944977c-36.260986,-63.92601 -103.138,-179.324509 -133.508987,-232.688011c-0.644012,-1.132 -6.981003,-6.239101 -12.212006,-6.1782c-5.332001,0.061199 -11.895004,4.016998 -13.005997,5.951797l0,0z" stroke-width="1px" fill-rule="evenodd" fill="#ffffff"/>
  <path d="m148.584946,55.433571c-20.697327,36.82618 -80.106499,141.996056 -119.211386,212.214409c-3.000059,5.397675 3.060572,16.319336 7.94943,16.318329c47.586807,-0.009918 194.717476,-0.069244 244.780159,-0.108826c5.544281,-0.004364 10.364624,-11.925293 7.444763,-17.182037c-32.203278,-57.977249 -91.595078,-162.638412 -118.567215,-211.036575c-0.572113,-1.026611 -6.19957,-5.658588 -10.845703,-5.603271c-4.735382,0.05547 -10.563782,3.643162 -11.550049,5.397972z" stroke-width="1px" fill-rule="evenodd" fill="#000000" id="svg_1"/>
  <path id="path2384" d="m159.441559,111.181824c-3.705246,-0.067787 -9.243149,1.17244 -13.032791,4.384048c-3.910019,3.313629 -5.470551,5.800247 -5.495346,8.94928c-0.204178,25.941559 6.141571,87.257263 6.141571,87.257263c0,0 2.349243,9.626022 11.693924,9.192947c8.913223,-0.421082 11.395355,-7.971725 11.395355,-7.971725c0.073883,0 6.440552,-62.621384 6.093826,-88.478485c-0.041534,-3.098122 -1.219482,-4.940041 -5.067444,-8.453629c-3.393188,-3.098343 -8.349609,-4.817886 -11.729095,-4.8797z" stroke-width="1px" fill-rule="evenodd" fill="#ffffff"/>
  <path d="m173.813156,248.93074a14.71855,12.03463 0 1 1 -29.437119,0a14.71855,12.03463 0 1 1 29.437119,0z" id="path3156" stroke-dashoffset="0" stroke-miterlimit="4" stroke-width="5" fill-rule="evenodd" fill="#ffffff"/>
 </g>
</svg>